<?xml version="1.0" encoding="UTF-8"?><svg id="Calque_1" xmlns="http://www.w3.org/2000/svg" viewBox="0 0 231.96 255.28"><defs><style>.cls-1{fill:#fff;}.cls-2{fill:#ff56c2;}</style></defs><path class="cls-2" d="M186.54,102.6c-.82-7.92-1.39-15.87-2.55-23.74-.66-4.47-1.79-9.01-3.58-13.14-3.1-7.17-9.81-9.74-16.87-11.06-6.73-1.26-13.56-1.94-20.35-2.88-.64-.09-1.28-.18-1.92-.69,3.5-.39,7.03-.62,10.5-1.2,5.4-.91,10.81-1.82,16.11-3.15,9.05-2.28,13.79-8.72,15.14-17.55,1.41-9.25,2.23-18.59,3.31-27.89.05-.43.08-.86.52-1.31.43,4.91.71,9.84,1.33,14.73.71,5.58,1.5,11.17,2.63,16.67,1.92,9.32,8.29,14.35,17.22,16.13,7.23,1.44,14.59,2.25,21.9,3.33.66.1,1.32.14,2.02.68-2.04.23-4.09.37-6.12.69-6.38,1.03-12.8,1.89-19.12,3.24-9.96,2.13-15.16,8.91-16.61,18.61-1.2,8.05-1.92,16.17-2.86,24.27-.16,1.42-.33,2.84-.5,4.27-.07,0-.14-.02-.21-.02Z"/><g id="mfHBc1.tif"><path class="cls-1" d="M90.46,236.21c2.93,2.91,5.55,5.5,8.16,8.11,1.67,1.68,3.36,3.35,4.96,5.09,1.41,1.54,1.25,3.26-.1,4.69-1.36,1.43-3.04,1.58-4.69.36-.57-.42-1.07-.94-1.57-1.44-21.25-21.24-42.48-42.51-63.76-63.71-1.7-1.69-2.49-3.51-2.43-5.88.09-3.87,0-7.75.03-11.62.03-3.82,1.36-5.15,5.09-5.2,4.03-.05,5.19-1.19,5.19-5.22.01-9.01.01-18.03,0-27.04,0-3.94-1.31-5.21-5.27-5.24-3.75-.02-4.93-1.18-5.03-4.91-.02-.71.21-1.59-.13-2.1-.73-1.09-1.66-2.65-2.67-2.77-1.17-.15-2.79.77-3.67,1.73-.67.72-.63,2.22-.67,3.38-.11,3.6-1.11,4.65-4.65,4.68-.47,0-.95-.03-1.42,0-2.53.19-3.95,1.58-3.96,4.09-.03,9.81-.03,19.61,0,29.42,0,2.65,1.31,3.92,3.91,3.99.63.02,1.27-.02,1.9.01,2.9.15,4.17,1.42,4.18,4.28.03,5.06.09,10.12-.03,15.18-.06,2.55.73,4.49,2.56,6.3,10.29,10.17,20.49,20.44,30.72,30.67.34.34.68.67,1.01,1.01,1.4,1.44,2.42,2.99,1.17,5.03-1.04,1.7-2.9,2.21-5.23,1.09-4.75-2.27-9.7-4.3-14.05-7.2-5.61-3.74-11.36-7.64-15.93-12.52-12.33-13.16-20.49-28.62-23.07-46.71-3.68-25.77,2.62-48.78,19.26-68.84,13.67-16.48,31.43-26.09,52.37-29.3,44.42-6.81,85.67,20.94,96.46,64.42,11.29,45.47-16.32,91.81-61.72,103.38-4.92,1.26-10.06,1.67-15.1,2.48-.43.07-.87.15-1.82.31ZM85.91,114.78c-19.72-.11-35.88,15.68-35.95,35.33-.07,20.59,16.58,36.03,35.51,36.04,19.79.02,35.98-15.74,36.09-35.48.11-19.76-15.8-35.77-35.65-35.89ZM150.06,153c0-.95.02-1.9,0-2.84-.04-2.02-1.37-3.27-3.09-3.21-1.22.04-2.61,1.11-3.51,2.1-.57.62-.49,1.93-.52,2.94-.21,7.81-1.95,15.24-5.19,22.35-2.81,6.18-6.76,11.53-11.35,16.49-1.6,1.73-1.47,3.88.03,5.25,1.53,1.39,3.54,1.26,5.23-.49,11.48-11.88,17.57-26.09,18.39-42.58Z"/><path class="cls-1" d="M85.81,143.33c3.86.02,7.05,3.19,7.1,7.06.05,3.93-3.24,7.2-7.21,7.18-3.86-.02-7.05-3.19-7.1-7.06-.05-3.93,3.24-7.2,7.21-7.18Z"/></g></svg>