<?xml version="1.0" encoding="UTF-8"?><svg id="Calque_1" xmlns="http://www.w3.org/2000/svg" viewBox="0 0 181.15 138.68"><defs><style>.cls-1{fill:#ffec00;}.cls-2{fill:#ff56c2;}</style></defs><path class="cls-1" d="M119.99,138.16c-1.1-10.66-1.87-21.37-3.43-31.97-.89-6.02-2.41-12.13-4.81-17.69-4.17-9.66-13.21-13.11-22.71-14.89-9.06-1.7-18.27-2.62-27.41-3.88-.86-.12-1.72-.24-2.58-.92,4.72-.52,9.47-.83,14.14-1.61,7.27-1.22,14.56-2.45,21.7-4.25,12.18-3.07,18.57-11.74,20.38-23.63,1.9-12.46,3.01-25.03,4.46-37.55.07-.58.11-1.16.7-1.76.58,6.62.96,13.26,1.79,19.84.95,7.51,2.02,15.04,3.55,22.45,2.59,12.56,11.17,19.32,23.19,21.71,9.74,1.94,19.65,3.03,29.49,4.48.89.13,1.78.19,2.72.92-2.75.3-5.51.5-8.24.94-8.59,1.38-17.24,2.55-25.74,4.37-13.42,2.86-20.42,11.99-22.36,25.06-1.62,10.84-2.59,21.78-3.85,32.68-.22,1.92-.45,3.83-.68,5.74-.1-.01-.19-.02-.29-.03Z"/><path class="cls-2" d="M64.94,100.63c-5.15.81-10.33,1.45-15.43,2.46-8.98,1.78-12.93,5.72-14.47,14.83-1.12,6.66-1.71,13.4-2.61,20.76-.73-6.62-1.27-12.64-2.1-18.62-.81-5.79-2.19-11.57-7.99-14.44-3.25-1.61-6.93-2.5-10.51-3.25-3.87-.81-7.86-1.09-11.82-2.08,3.74-.53,7.49-1.05,11.23-1.58.1-.01.2-.02.31-.03,12.8-1.72,17.33-6.22,18.94-19.01.7-5.58,1.26-11.18,1.98-17.61.82,7.1,1.36,13.38,2.31,19.6,1.59,10.44,5.36,14.37,15.77,16.47,4.78.96,9.66,1.48,14.49,2.2-.03.1-.05.21-.08.31Z"/></svg>